<?xml version="1.0" encoding="UTF-8" standalone="no"?>
<!-- Created with Inkscape (http://www.inkscape.org/) -->

<svg
   width="76.509453mm"
   height="47.184364mm"
   viewBox="0 0 76.509453 47.184364"
   version="1.1"
   id="svg1"
   xml:space="preserve"
   xmlns="http://www.w3.org/2000/svg"
   xmlns:svg="http://www.w3.org/2000/svg"><defs
     id="defs1" /><circle
     id="path6"
     style="fill:#000000;stroke:#000000;stroke-width:0.264583"
     cx="13.405239"
     cy="18.742031"
     r="0.006158174" /><circle
     id="path7"
     style="fill:#000000;stroke:#000000;stroke-width:0.264583"
     cx="13.636406"
     cy="18.464626"
     r="0.006158174" /><path
     style="fill:#ffb60c;fill-opacity:1;stroke-width:0.264583"
     d="m 5.4070907,47.184229 c -4.195418,-4.02106 -5.90627804,-12.48819 6.6690833,-22.98219 l -3.5777713,-3.44078 2.2230273,-1.16872 -6.0989373,-0.008 4.190653,4.974 c -10.477172,8.00369 -11.613165,19.0913 -3.406055,22.62582 z"
     id="path24" /><path
     style="fill:#ffb60c;fill-opacity:1;stroke-width:0.264583"
     d="m 21.172363,46.712909 c 6.056165,-2.23304 8.33795,-4.04707 8.33795,-4.04707 2.264958,-2.14937 2.881226,-4.51372 3.01222,-6.887 -2.114133,4.48436 -5.815766,7.22117 -11.35017,10.93407 z"
     id="path25" /><path
     style="fill:#ffb60c;fill-opacity:1;stroke-width:0.264583"
     d="m 37.493876,36.287689 c 0.179803,-0.21249 1.258626,-2.37624 1.258626,-2.37624 0,0 18.43527,3.43931 18.527736,3.39307 0.09247,-0.0462 1.132705,-1.20205 1.132705,-1.20205 l -0.346747,2.58653 -19.047944,-3.25942"
     id="path28" /><path
     style="fill:#ffb60c;fill-opacity:1;stroke-width:0.264583"
     d="m 41.057258,32.603779 c 0.16346,-0.0981 7.192148,-5.26334 7.192148,-5.26334 l 3.236468,2.58263 c 1.124394,0.85527 0.857422,0.63146 2.074281,1.35959 -0.81729,-1.04613 -1.662662,-1.78432 -1.576209,-2.72031 2.885987,3.39198 1.571532,1.8655 4.176822,4.79334 -2.854597,-1.20302 -5.324283,-2.47189 -7.90824,-4.64013 l -6.443364,4.47667"
     id="path29" /><g
     id="g31"
     transform="translate(-33.937225,-119.77167)"><path
       style="font-weight:bold;font-size:3.175px;font-family:EHUSerif;-inkscape-font-specification:EHUSerif;white-space:pre;inline-size:25.0865;fill:#ffb60c;stroke-width:0.264583"
       d="m 60.9907,162.91 -1.2645,0.534 0.3319,0.562 0.3107,-0.084 1.0197,1.805 c 0.4063,0.719 0.6636,1.396 0.1042,1.685 -0.568,0.295 -1.032,-0.297 -1.4423,-1.039 l -1.0292,-1.862 c 0.1057,-0.06 0.2324,-0.132 0.3288,-0.196 l -0.3026,-0.584 -1.3992,0.591 0.3438,0.601 c 0.1319,-0.034 0.2588,-0.075 0.3626,-0.105 l 1.0267,1.878 c 0.6395,1.169 1.5001,2.005 2.5242,1.455 0.9871,-0.531 0.7285,-1.624 0.1011,-2.723 l -1.015,-1.778 c 0.0932,-0.055 0.2142,-0.123 0.3028,-0.183 z m 5.0805,2.19 c -0.1307,0.016 -0.3407,0.05 -0.4253,0.019 -0.1058,-0.042 -0.2496,-0.132 -0.414,-0.256 -0.2032,-0.15 -0.4303,-0.339 -0.6504,-0.525 0.1707,-0.351 0.0912,-0.83 -0.2137,-1.339 -0.4793,-0.801 -1.1014,-1.111 -2.0084,-0.729 -0.3639,0.153 -0.7163,0.372 -1.1077,0.537 l 0.3343,0.554 c 0.1157,-0.027 0.2146,-0.057 0.3216,-0.09 l 1.7386,3.003 c -0.1003,0.066 -0.1888,0.137 -0.3021,0.219 l 0.3244,0.59 1.3498,-0.722 -0.3367,-0.547 c -0.1846,0.065 -0.2984,0.109 -0.4551,0.175 l -0.5634,-0.964 c 0.0683,-0.02 0.1863,-0.047 0.3319,-0.119 0.0534,-0.026 0.1111,-0.062 0.1497,-0.088 0.202,0.169 0.4678,0.388 0.7269,0.587 0.3686,0.287 0.723,0.541 0.8663,0.58 0.0473,-0.002 0.1346,-0.048 0.1926,-0.08 0.1479,-0.079 0.3206,-0.209 0.4101,-0.287 z m -2.283,-1.873 c 0.2596,0.438 0.1803,0.815 -0.2155,1.002 -0.0961,0.045 -0.1951,0.078 -0.3171,0.098 l -0.7595,-1.299 c 0.0376,-0.045 0.1705,-0.11 0.2247,-0.134 0.5362,-0.234 0.8358,-0.058 1.0674,0.333 z m 2.7191,-1.175 c 0.2725,0.441 0.1826,0.784 -0.145,0.939 -0.0852,0.041 -0.1735,0.07 -0.2831,0.086 l -0.7828,-1.282 c 0.0356,-0.042 0.1532,-0.101 0.198,-0.12 0.4661,-0.204 0.7614,-0.03 1.0129,0.377 z m 1.2822,2.819 -0.326,-0.508 c -0.1848,0.073 -0.3397,0.14 -0.4823,0.192 l -0.4983,-0.816 c 0.0618,-0.009 0.1838,-0.049 0.3059,-0.109 0.5908,-0.292 0.7857,-0.897 0.232,-1.785 -0.5371,-0.863 -1.1563,-1.051 -1.876,-0.748 -0.3231,0.136 -0.6328,0.333 -0.9761,0.478 l 0.3219,0.511 c 0.1026,-0.017 0.1947,-0.044 0.2866,-0.071 l 1.6902,2.791 c -0.0845,0.058 -0.1617,0.121 -0.2574,0.2 l 0.3132,0.543 z m 2.7478,-1.469 c -0.2254,-0.37 -0.4456,-0.719 -0.6484,-1.035 l -0.3303,0.199 0.2237,0.437 -0.6133,0.357 -0.6438,-1.019 0.4698,-0.206 c 0.0637,0.081 0.0893,0.115 0.1719,0.214 l 0.325,-0.139 -0.6842,-1.07 -0.3048,0.165 c 0.0514,0.112 0.0706,0.148 0.1252,0.259 l -0.4486,0.23 -0.6102,-0.966 0.6455,-0.251 0.2664,0.374 0.3494,-0.126 c -0.1984,-0.357 -0.342,-0.593 -0.5841,-0.976 l -1.7391,0.735 0.3168,0.487 c 0.0908,-0.02 0.174,-0.044 0.2573,-0.068 l 1.652,2.634 c -0.0756,0.052 -0.1443,0.11 -0.2294,0.182 l 0.306,0.51 z m -0.0316,-4.51 -0.8624,0.364 0.304,0.443 c 0.0738,-0.014 0.1908,-0.048 0.2577,-0.065 0.1325,0.218 0.2289,0.44 0.2707,0.641 0.0438,0.231 0.0061,0.428 -0.1841,0.517 -0.0337,0.015 -0.107,0.05 -0.1506,0.045 l -0.5952,-0.915 c 0.104,-0.064 0.1495,-0.089 0.2304,-0.149 l -0.285,-0.453 -0.9129,0.386 0.3059,0.463 c 0.1034,-0.021 0.1591,-0.039 0.2381,-0.061 l 1.6114,2.491 c -0.071,0.049 -0.1326,0.102 -0.2088,0.168 l 0.2988,0.482 0.9393,-0.503 -0.3085,-0.455 c -0.0927,0.028 -0.2039,0.073 -0.2998,0.103 l -0.6343,-0.974 c 0.0369,-0.006 0.0997,-0.023 0.1584,-0.052 0.0391,-0.019 0.1169,-0.062 0.1568,-0.108 0.1561,0.133 0.3927,0.327 0.635,0.525 0.3793,0.307 0.7778,0.617 0.8947,0.652 0.0219,10e-4 0.0974,-0.031 0.1501,-0.06 0.0842,-0.045 0.2277,-0.154 0.2852,-0.21 l -0.2533,-0.429 c -0.1001,0.007 -0.26,0.026 -0.3283,-0.002 -0.1141,-0.05 -0.3943,-0.275 -0.6751,-0.506 -0.1806,-0.15 -0.3584,-0.301 -0.489,-0.412 0.0467,-0.275 -0.163,-0.865 -0.4665,-1.351 0.051,-0.033 0.1416,-0.086 0.1832,-0.127 z m 4.3714,2.189 -0.2842,-0.383 -0.2011,0.027 -2.4425,-2.448 -0.3837,0.162 0.2391,0.238 c 0.1325,0.931 0.6084,2.025 0.9912,2.855 l -0.1033,0.167 0.252,0.416 0.7594,-0.407 -0.2805,-0.401 c -0.0827,0.011 -0.16,0.027 -0.232,0.045 -0.111,-0.215 -0.2295,-0.457 -0.3038,-0.628 l 0.6355,-0.316 0.4996,0.502 -0.1404,0.158 0.2493,0.412 z m -1.8015,-1.127 -0.4351,0.209 c -0.1121,-0.28 -0.229,-0.62 -0.2958,-0.933 l 0.0097,-0.01 z m 3.2409,-0.175 c -0.0841,0.004 -0.218,0.016 -0.2773,-0.011 -0.0748,-0.036 -0.1805,-0.108 -0.304,-0.205 -0.152,-0.117 -0.3248,-0.263 -0.4924,-0.407 0.0667,-0.239 -0.0468,-0.584 -0.3125,-0.963 -0.4186,-0.598 -0.8664,-0.851 -1.4055,-0.624 -0.215,0.09 -0.413,0.228 -0.6425,0.325 l 0.2898,0.409 c 0.0707,-0.014 0.1304,-0.03 0.195,-0.047 l 1.5155,2.203 c -0.0562,0.04 -0.1044,0.084 -0.1669,0.134 l 0.2846,0.428 0.7838,-0.419 -0.2882,-0.402 c -0.1119,0.034 -0.1804,0.058 -0.2738,0.095 l -0.4892,-0.708 c 0.0418,-0.009 0.1149,-0.022 0.2003,-0.064 0.0314,-0.015 0.0644,-0.037 0.0861,-0.053 0.1532,0.13 0.3544,0.299 0.5488,0.454 0.2769,0.223 0.5407,0.423 0.6393,0.458 0.0309,0.002 0.0823,-0.026 0.1166,-0.044 0.0873,-0.047 0.1848,-0.128 0.2341,-0.178 z m -1.7357,-1.454 c 0.2265,0.324 0.2236,0.587 -0.0096,0.698 -0.0566,0.026 -0.1165,0.044 -0.193,0.051 l -0.6635,-0.959 c 0.0184,-0.03 0.0958,-0.069 0.1279,-0.083 0.3174,-0.139 0.536,0.002 0.7382,0.293 z m 2.7478,1.445 -0.2797,-0.382 -0.1962,0.057 -1.47,-2.076 c 0.0471,-0.031 0.0913,-0.061 0.1392,-0.097 l -0.2656,-0.386 -0.6454,0.272 0.2814,0.388 c 0.065,-0.011 0.1196,-0.026 0.1788,-0.041 l 1.4723,2.088 c -0.0507,0.037 -0.0939,0.077 -0.1472,0.128 l 0.2737,0.401 z"
       id="text30"
       transform="matrix(1.54442,0,0,1.54442,-39.5472,-103.906)"
       aria-label="URPEKARI" /></g><path
     style="fill:#ffb60c;fill-opacity:1;stroke:#ffb60c;stroke-width:0.264583;stroke-opacity:1"
     d="m 13.533979,23.130779 c 9.775752,-3.70529 18.979848,-5.93646 28.559085,-8.42727 0.757718,-3.08553 0.791438,-4.52362 2.525981,-6.6418104 -0.190994,1.71419 -0.18627,1.71839 -0.219668,5.2076104 0.350328,-0.0285 0.499621,-0.0732 0.746126,-0.26832 0.02407,-4.3508904 0.01805,-1.87002 0.01202,-6.5971104 -2.530854,0.73322 -3.240908,4.9124104 -3.800483,7.4814704 -9.545217,2.63038 -21.437912,5.14036 -27.823064,9.24543 z"
     id="path31" /><path
     style="fill:#ffb60c;fill-opacity:1;stroke:none;stroke-width:0.353201;stroke-opacity:1"
     d="m 44.57121,14.828069 2.117493,0.41178 0.306732,-1.26355 -0.657849,0.79158 z m 2.159643,-0.058"
     id="path32" /><path
     style="fill:#ffb60c;fill-opacity:1;stroke:none;stroke-width:0.353201;stroke-opacity:1"
     d="m 46.805827,15.060759 2.117493,0.41178 0.306732,-1.26355 -0.657849,0.79158 z m 2.159643,-0.058"
     id="path33" /><path
     style="fill:#ffb60c;fill-opacity:1;stroke:none;stroke-width:0.353201;stroke-opacity:1"
     d="m 49.006642,15.372609 2.117493,0.41178 0.306732,-1.26355 -0.657849,0.79158 z m 2.159643,-0.058"
     id="path34" /><path
     style="fill:#ffb60c;fill-opacity:1;stroke:none;stroke-width:0.353201;stroke-opacity:1"
     d="m 51.218799,15.692099 2.117493,0.41178 0.306732,-1.26355 -0.657849,0.79158 z m 2.159643,-0.058"
     id="path35" /><path
     style="fill:#ffb60c;fill-opacity:1;stroke:none;stroke-width:0.353201;stroke-opacity:1"
     d="m 53.317874,16.207769 2.117493,0.41178 0.306732,-1.26355 -0.657849,0.79158 z m 2.159643,-0.058"
     id="path36" /><path
     style="fill:#ffb60c;fill-opacity:1;stroke:none;stroke-width:0.353201;stroke-opacity:1"
     d="m 55.458387,16.776219 2.117493,0.41178 0.306732,-1.26355 -0.657849,0.79158 z m 2.159643,-0.058"
     id="path37" /><path
     style="fill:#ffb60c;fill-opacity:1;stroke:none;stroke-width:0.353201;stroke-opacity:1"
     d="m 57.640337,17.393739 2.117493,0.41178 0.306732,-1.26355 -0.657849,0.79158 z m 2.159643,-0.058"
     id="path38" /><path
     style="fill:#ffb60c;fill-opacity:1;stroke:none;stroke-width:0.264583;stroke-opacity:1"
     d="m 60.588588,17.778349 c 2.653761,-1.91737 3.813467,-3.32782 5.26665,-8.1265804 1.577747,-5.22712 4.596187,-6.93254 8.334987,-9.651780036844 C 67.520885,1.8872186 66.134095,6.0421986 64.667281,9.6102386 62.889738,13.613559 62.846364,15.215719 60.588588,17.778349 Z"
     id="path39" /><path
     style="fill:#ffb60c;fill-opacity:1;stroke:none;stroke-width:0.264583;stroke-opacity:1"
     d="m 60.362205,20.034919 c 2.880144,1.86077 4.228503,2.76186 8.11531,7.50403 1.78527,2.07661 2.85938,3.78981 8.03194,5.56578 -2.34919,0.73505 -6.62117,-1.91848 -9.05012,-4.80737 -2.871721,-3.72034 -4.311126,-5.56775 -7.09713,-8.26244 z"
     id="path40" /><path
     style="fill:#ffb60c;fill-opacity:1;stroke:none;stroke-width:0.264583;stroke-opacity:1"
     d="m 74.387225,0.49451856 c -1.4149,2.31414004 -2.35816,4.00573004 -3.28256,6.26327004 -0.80492,2.02487 -1.15707,3.5026604 -1.62241,5.8482404 0.11319,-2.6725804 0.0755,-3.9302704 1.01873,-6.2632804 1.01243,-2.19466 2.17579,-3.84222 3.88624,-5.84823004 z"
     id="path41" /><path
     style="fill:#ffb60c;fill-opacity:1;stroke:none;stroke-width:0.264583;stroke-opacity:1"
     d="m 76.464305,32.415169 c -1.68169,-2.18074 -2.81171,-3.73893 -4.02958,-5.99647 -0.99168,-2.02487 -1.7707,-3.8495 -2.23604,-6.19508 0.11319,2.67258 0.55573,4.33046 1.49896,6.66347 1.01243,2.19466 2.70938,3.76219 4.76666,5.52808 z"
     id="path42" /><path
     style="fill:#ffb60c;fill-opacity:1;stroke:none;stroke-width:0.353201;stroke-opacity:1"
     d="m 48.83873,27.305879 1.815067,-1.16571 0.752289,1.06052 -0.90396,-0.49216 z m 2.027969,-0.74483"
     id="path43" /><path
     style="fill:#ffb60c;fill-opacity:1;stroke:none;stroke-width:0.353201;stroke-opacity:1"
     d="m 51.045968,26.117369 1.815067,-1.16571 0.752289,1.06052 -0.90396,-0.49216 z m 2.027969,-0.74483"
     id="path45" /><path
     style="fill:#ffb60c;fill-opacity:1;stroke:none;stroke-width:0.353201;stroke-opacity:1"
     d="m 53.328666,24.966589 1.815067,-1.16571 0.752289,1.06052 -0.90396,-0.49216 z m 2.027969,-0.74483"
     id="path46" /><path
     style="fill:#ffb60c;fill-opacity:1;stroke:none;stroke-width:0.353201;stroke-opacity:1"
     d="m 55.517038,23.513959 1.815067,-1.16571 0.752289,1.06052 -0.90396,-0.49216 z m 2.027969,-0.74483"
     id="path47" /><path
     style="fill:#ffb60c;fill-opacity:1;stroke:none;stroke-width:0.353201;stroke-opacity:1"
     d="m 57.611085,22.099059 1.815067,-1.16571 0.752289,1.06052 -0.90396,-0.49216 z m 2.027969,-0.74483"
     id="path48" /></svg>
